<?xml version="1.0" encoding="utf-8"?>
<!-- Generator: Adobe Illustrator 27.9.0, SVG Export Plug-In . SVG Version: 6.00 Build 0)  -->
<svg version="1.1" id="svg1419" xmlns:svg="http://www.w3.org/2000/svg"
	 xmlns="http://www.w3.org/2000/svg" xmlns:xlink="http://www.w3.org/1999/xlink" x="0px" y="0px" viewBox="0 0 709.3 709.3"
	 style="enable-background:new 0 0 709.3 709.3;" xml:space="preserve">
<style type="text/css">
	.st0{fill:#DEF9FF;}
	.st1{fill:#FFEB61;}
	.st2{fill:none;stroke:#CAD85D;stroke-width:35.5556;stroke-linecap:round;stroke-linejoin:round;stroke-miterlimit:17.7777;}
	.st3{fill:#EB5D7D;}
	.st4{fill:none;stroke:#EB5D7D;stroke-width:35.5556;stroke-linecap:round;stroke-linejoin:round;stroke-miterlimit:17.7777;}
</style>
<g id="g1425" transform="matrix(1.3333333,0,0,-1.3333333,0,682.66667)">
	<g id="g1427">
		<g>
			<g id="g1429">
				<g id="g1435" transform="translate(256,502)">
					<path id="path1437" class="st0" d="M10-10c-136,0-246-110-246-246c0-135.7,109.8-246,246-246c136.8,0,246,110.9,246,246
						C256-120,146-10,10-10"/>
				</g>
				<g id="g1439" transform="translate(405.3203,60.4302)">
					<path id="path1441" class="st1" d="M10-10L10-10c-41.4-31.7-93.1-50.4-149.3-50.4S-247.2-41.6-288.6-10
						c7.2,76.1,71.3,135.6,149.3,135.6S2.7,66.1,10-10"/>
				</g>
				<g id="g1443" transform="translate(256,396)">
					<path id="path1445" class="st1" d="M10-10c44.1,0,80-35.9,80-80s-35.9-80-80-80s-80,35.9-80,80S-34.1-10,10-10"/>
				</g>
				<g id="g1447" transform="translate(256,236)">
					<path id="path1449" class="st2" d="M10-10c-44.1,0-80,35.9-80,80s35.9,80,80,80s80-35.9,80-80S54.1-10,10-10z"/>
				</g>
				<g id="g1451" transform="translate(106.6504,60.0298)">
					<path id="path1453" class="st2" d="M10-10c0,0.1,0,0.3,0,0.4C17.3,66.5,81.4,126,159.4,126s142-59.5,149.3-135.6"/>
				</g>
				<g id="g1455" transform="translate(450,420)">
					<path id="path1457" class="st3" d="M10-10c0-5.5-4.5-10-10-10s-10,4.5-10,10S-5.5,0,0,0S10-4.5,10-10"/>
				</g>
				<g id="g1459" transform="translate(466.4209,383.5923)">
					<path id="path1461" class="st4" d="M10-10c22.6-37.2,35.6-80.9,35.6-127.6c0-79.8-37.9-150.7-96.7-195.6l0,0
						c-41.4-31.6-93.1-50.4-149.3-50.4s-107.9,18.8-149.3,50.4c-58.8,44.9-96.7,115.8-96.7,195.6c0,136,110,246,246,246
						c56.9,0,109.2-19.2,150.9-51.6"/>
				</g>
			</g>
		</g>
	</g>
</g>
</svg>
