<?xml version="1.0" encoding="iso-8859-1"?>
<!-- Generator: Adobe Illustrator 19.0.0, SVG Export Plug-In . SVG Version: 6.00 Build 0)  -->
<svg version="1.1" id="Layer_1" xmlns="http://www.w3.org/2000/svg" xmlns:xlink="http://www.w3.org/1999/xlink" x="0px" y="0px"
	 viewBox="0 0 512 512" style="enable-background:new 0 0 512 512;" xml:space="preserve">
<g>
	<g>
		<path d="M256,53.761C144.484,53.761,53.761,144.485,53.761,256c0,67.81,33.548,127.928,84.916,164.638v-44.682
			c0-37.685,30.55-68.234,68.235-68.234h98.177c37.685,0,68.235,30.55,68.235,68.234v44.682
			C424.693,383.927,458.24,323.81,458.24,256C458.239,144.485,367.516,53.761,256,53.761z M256,265.75
			c-38.607,0-70.019-31.41-70.019-70.019c0-38.607,31.41-70.017,70.019-70.017s70.019,31.41,70.019,70.017
			C326.019,234.34,294.607,265.75,256,265.75z"/>
	</g>
</g>
<g>
	<g>
		<path d="M256,0C114.614,0,0,114.614,0,256s114.614,256,256,256s256-114.614,256-256S397.384,0,256,0z M256,484.243
			c-125.853,0-228.243-102.39-228.243-228.243S130.147,27.757,256,27.757S484.243,130.147,484.243,256S381.853,484.243,256,484.243z
			"/>
	</g>
</g>
<g>
</g>
<g>
</g>
<g>
</g>
<g>
</g>
<g>
</g>
<g>
</g>
<g>
</g>
<g>
</g>
<g>
</g>
<g>
</g>
<g>
</g>
<g>
</g>
<g>
</g>
<g>
</g>
<g>
</g>
</svg>
